PathFileType	4	(X/Y/Z)	C:\Users\°ÂÌØÂü\Desktop\20210112\bx_n_0_1802-Unnamed.trc
DataRate	CameraRate	NumFrames	NumMarkers	Units	OrigDataRate	OrigDataStartFrame	OrigNumFrames
50.00	50.00	       4	0	mm	50.00	1	       425
Frame#	Time	
		

1	0.000	-573.09454	-0.60117	1053.60217	-577.92719	245.81709	1062.80737	-661.56525	289.77734	871.36993	-566.29620	-0.28897	800.67175	-569.24493	224.36110	789.70532	-674.05536	273.71173	743.10931	-709.26721	254.06679	642.71271	-680.46997	145.25061	576.53546	-655.34448	21.13905	516.91504	-713.88123	249.44322	575.85254	-663.70490	205.36481	533.73096	-755.57336	260.26257	502.51077	-715.94220	74.09130	214.69914	-649.27332	-66.24194	162.99774	-712.96277	150.40993	216.30508	-764.53577	225.78931	206.13927	-608.23889	-73.75323	159.32690	-882.52820	296.10770	144.66029	-671.27173	56.04537	156.13345	-597.33124	26.20096	165.81789	-551.41687	-31.36425	165.88950	-517.46014	-72.78200	143.54431	-588.45544	209.95322	173.86987	-653.99512	292.41776	156.33691	-616.83838	299.22366	158.32066	-552.75256	246.88312	166.51451	-528.17328	303.89160	146.53862	-684.26251	127.92731	1847.85559	-701.54413	297.78265	1526.73730	-794.02356	177.51949	185.54367	-679.09308	-64.32976	1537.57690	-790.95331	42.98400	176.55112	-774.14508	102.02173	1054.47363	-747.67194	-41.61340	489.47092	-756.24683	-15.81054	207.87003	-875.99792	-78.69180	141.55168	-639.77124	-67.32957	870.11902	-701.59406	-28.40405	567.68829	-674.25873	166.11604	157.21786	-579.70325	112.29611	1353.21094	-681.44080	79.23773	572.91284	-662.95776	-58.16053	757.14752	-691.19897	-30.47103	614.14587	
2	0.020	-573.00000	-0.67169	1053.65674	-578.29340	245.91165	1062.91394	-661.74902	289.42728	871.21979	-566.26367	-0.39475	800.75732	-569.33691	224.38202	789.88403	-673.99939	273.67825	743.08716	-709.29138	254.10463	642.82837	-680.46997	145.25061	576.53546	-655.40265	20.97136	516.86029	-713.90851	249.40973	575.57129	-663.96185	205.36279	533.72089	-755.66815	260.04321	502.57291	-715.79529	73.92304	214.68115	-649.22095	-66.30960	163.15080	-712.66895	150.64177	216.21107	-764.50079	225.71561	206.06853	-608.09760	-73.87990	159.48250	-882.54236	296.21561	144.80209	-672.10388	55.41050	155.58578	-597.08679	26.23117	165.83208	-551.47931	-31.39788	166.00053	-517.46014	-72.78200	143.54431	-588.45544	209.95322	173.86987	-654.05389	292.53366	156.14069	-616.95465	299.26154	158.28955	-552.76874	246.77155	166.37794	-528.06567	304.17868	146.70096	-684.27484	127.68615	1847.90112	-701.56226	297.62659	1526.67029	-794.16541	177.47775	185.71474	-678.86383	-64.57432	1537.49438	-790.79645	42.95984	176.43126	-774.06470	101.92361	1054.48840	-747.56708	-41.89352	489.13031	-756.16351	-15.79647	207.94685	-875.87335	-78.57735	141.34627	-639.77124	-67.32957	870.11902	-701.68268	-28.22238	567.46417	-674.28766	165.97862	157.10257	-579.75818	112.34306	1353.26074	-681.26068	79.07285	573.16315	-662.95294	-58.09508	757.19879	-691.28192	-30.58014	614.29681	
3	0.040	-573.09729	-0.77723	1053.60718	-578.06531	245.60486	1062.84119	-661.79553	289.65631	871.44214	-566.20355	-0.47435	800.74927	-569.32343	224.29646	789.68225	-674.03772	273.63245	743.19952	-709.34595	253.83421	642.81116	-680.38074	144.98973	576.78687	-655.27509	20.78694	517.00751	-713.82855	249.30769	575.58875	-663.73621	205.34599	533.84259	-755.73560	259.88431	502.57526	-715.76404	73.96264	214.72314	-649.27332	-66.24194	162.99774	-712.70612	150.50996	216.45033	-764.50403	225.74699	205.95232	-608.16626	-73.68277	159.35109	-882.48029	296.33026	144.85162	-671.27173	56.04537	156.13345	-597.13397	26.17726	165.95009	-551.36920	-31.44285	166.10023	-517.53162	-72.91478	143.48549	-588.50470	210.02840	173.86292	-654.15302	292.64999	156.31874	-616.95465	299.26154	158.28955	-552.79712	246.91780	166.48450	-528.06512	304.10474	146.73299	-684.26190	127.50845	1847.88684	-701.32343	297.39447	1526.79822	-794.16711	177.53293	185.66164	-678.80560	-64.74442	1537.45068	-791.00677	43.04895	176.45888	-774.26953	101.72971	1054.42822	-747.57550	-41.87058	489.08258	-756.29926	-15.68971	207.83139	-875.95648	-78.79716	141.44162	-639.63739	-67.33624	870.07880	-701.51581	-28.53617	567.66595	-674.32507	165.80377	156.93982	-579.84424	112.33950	1353.00464	-681.55585	79.31613	573.11011	-662.88269	-58.19035	757.23041	-691.27307	-30.65667	614.27246	
4	0.060	-573.05585	-0.94553	1053.63367	-578.18488	245.30841	1062.80554	-661.79553	289.65631	871.44214	-566.29620	-0.28897	800.67175	-569.33691	224.38202	789.88403	-674.02032	273.42447	743.12280	-709.25464	253.75201	642.61871	-679.90723	144.75345	576.72229	-655.40265	20.97136	516.86029	-713.70935	249.39220	575.68060	-663.79639	205.26225	533.91681	-755.68005	259.84650	502.48978	-715.89343	74.06062	214.85037	-649.28375	-66.27380	163.12828	-712.66895	150.64177	216.21107	-764.60364	225.72787	205.99527	-608.08960	-73.68729	159.74068	-882.42505	296.15695	144.76091	-671.51367	56.12012	156.03217	-597.24951	26.31326	165.88673	-551.48810	-31.33300	165.97675	-517.46014	-72.78200	143.54431	-588.52527	209.95010	173.86765	-654.08319	292.49576	156.27448	-616.88519	299.06082	158.38664	-552.86536	246.70244	166.66531	-528.18341	304.11401	146.55998	-684.36713	127.17929	1847.79529	-701.14307	297.21527	1526.86816	-794.20459	177.53841	185.59924	-678.98370	-64.82985	1537.56995	-790.89185	42.82129	176.50140	-774.19824	101.77279	1054.53821	-747.71399	-41.86366	489.25854	-756.18359	-15.81195	207.94138	-875.99792	-78.69180	141.55168	-639.73059	-67.33710	870.00671	-701.57281	-28.38816	567.61914	-674.28766	165.97862	157.10257	-579.84961	112.05531	1353.19299	-681.26068	79.07285	573.16315	-662.86780	-58.27254	757.28485	-691.25159	-30.79020	614.27368	
